<?xml version="1.0" encoding="utf-8"?>
<!-- Generator: Adobe Illustrator 27.9.0, SVG Export Plug-In . SVG Version: 6.00 Build 0)  -->
<svg version="1.1" id="Layer_2_00000089561495131464198690000009377141399387120296_"
	 xmlns="http://www.w3.org/2000/svg" xmlns:xlink="http://www.w3.org/1999/xlink" x="0px" y="0px" viewBox="0 0 452 69"
	 style="enable-background:new 0 0 452 69;" xml:space="preserve">
<style type="text/css">
	.st0{fill:#FFFFFF;}
	.st1{fill:url(#SVGID_1_);}
	.st2{fill:#D81222;}
</style>
<g>
	<path class="st0" d="M55.8,64.6h-7.2V29.8h7.2V64.6z"/>
	<path class="st0" d="M82.9,40.3c1.7,1.4,2.5,3.7,2.5,6.9v17.4h-6.9V49c0-1.4-0.2-2.4-0.5-3.1c-0.7-1.3-1.9-2-3.8-2
		c-2.3,0-3.8,1-4.7,2.9c-0.4,1-0.7,2.3-0.7,3.9v14h-6.7V38.9h6.5v3.8c0.9-1.3,1.7-2.3,2.4-2.9c1.4-1,3.1-1.6,5.3-1.6
		C79,38.2,81.2,38.9,82.9,40.3z"/>
	<path class="st0" d="M88.7,43.9v-4.8h3.6v-7.2H99v7.2h4.2v4.8H99v13.6c0,1.1,0.1,1.7,0.4,2s1.1,0.4,2.5,0.4c0.2,0,0.4,0,0.7,0
		c0.2,0,0.5,0,0.7,0v5L99.9,65c-3.2,0.1-5.4-0.4-6.5-1.7c-0.8-0.8-1.1-2-1.1-3.6V43.9H88.7z"/>
	<path class="st0" d="M123.9,39.4c1.8,0.8,3.3,2.1,4.5,3.8c1.1,1.5,1.7,3.3,2.1,5.3c0.2,1.2,0.3,2.9,0.2,5.1h-18.8
		c0.1,2.6,1,4.4,2.7,5.4c1,0.6,2.3,1,3.7,1c1.5,0,2.8-0.4,3.7-1.2c0.5-0.4,1-1,1.4-1.8h6.9c-0.2,1.5-1,3.1-2.5,4.7
		c-2.3,2.5-5.5,3.8-9.7,3.8c-3.4,0-6.5-1.1-9.1-3.2c-2.6-2.1-3.9-5.6-3.9-10.3c0-4.5,1.2-7.9,3.6-10.3c2.4-2.4,5.4-3.6,9.2-3.6
		C120.1,38.2,122.1,38.6,123.9,39.4z M113.8,45.2c-1,1-1.6,2.3-1.8,4h11.6c-0.1-1.8-0.7-3.1-1.8-4.1c-1.1-0.9-2.4-1.4-4-1.4
		C116.1,43.7,114.8,44.2,113.8,45.2z"/>
	<path class="st0" d="M148.9,38.3c0.1,0,0.3,0,0.6,0v6.9c-0.4,0-0.8-0.1-1.1-0.1s-0.6,0-0.8,0c-2.7,0-4.5,0.9-5.5,2.6
		c-0.5,1-0.8,2.5-0.8,4.6v12.3h-6.8V38.9h6.4v4.5c1-1.7,1.9-2.9,2.7-3.5c1.3-1.1,2.9-1.6,4.9-1.6C148.7,38.2,148.8,38.2,148.9,38.3z
		"/>
	<path class="st0" d="M163.6,49c1.3-0.2,2.2-0.4,2.7-0.6c1-0.4,1.5-1,1.5-1.9c0-1.1-0.4-1.8-1.1-2.2c-0.7-0.4-1.8-0.6-3.3-0.6
		c-1.6,0-2.8,0.4-3.4,1.2c-0.5,0.6-0.8,1.4-1,2.4h-6.5c0.1-2.3,0.8-4.1,1.9-5.6c1.8-2.3,4.9-3.4,9.2-3.4c2.8,0,5.4,0.6,7.6,1.7
		c2.2,1.1,3.3,3.2,3.3,6.3v11.8c0,0.8,0,1.8,0,3c0,0.9,0.2,1.5,0.4,1.8s0.6,0.6,1,0.8v1h-7.3c-0.2-0.5-0.3-1-0.4-1.5
		c-0.1-0.5-0.1-1-0.2-1.6c-0.9,1-2,1.9-3.2,2.6c-1.5,0.8-3.1,1.3-5,1.3c-2.3,0-4.3-0.7-5.8-2c-1.5-1.3-2.3-3.2-2.3-5.7
		c0-3.2,1.2-5.5,3.7-6.9c1.4-0.8,3.3-1.3,6-1.7L163.6,49z M167.7,52.1c-0.4,0.3-0.9,0.5-1.3,0.7c-0.4,0.2-1,0.3-1.8,0.5l-1.5,0.3
		c-1.4,0.3-2.5,0.6-3.1,0.9c-1.1,0.6-1.6,1.6-1.6,2.9c0,1.2,0.3,2,1,2.5c0.6,0.5,1.4,0.8,2.4,0.8c1.5,0,2.8-0.4,4.1-1.3
		c1.2-0.9,1.9-2.4,1.9-4.7L167.7,52.1L167.7,52.1z"/>
	<path class="st0" d="M195.6,48.1c-0.1-1-0.4-1.8-1-2.6c-0.8-1-1.9-1.6-3.5-1.6c-2.3,0-3.8,1.1-4.7,3.4c-0.4,1.2-0.7,2.8-0.7,4.8
		c0,1.9,0.2,3.4,0.7,4.6c0.8,2.1,2.3,3.2,4.6,3.2c1.6,0,2.7-0.4,3.4-1.3c0.7-0.9,1.1-2,1.2-3.3h6.9c-0.2,2.1-0.9,4-2.2,5.8
		c-2.1,2.9-5.2,4.4-9.4,4.4s-7.2-1.2-9.2-3.7c-2-2.5-2.9-5.7-2.9-9.6c0-4.4,1.1-7.9,3.2-10.3c2.2-2.5,5.1-3.7,9-3.7
		c3.2,0,5.9,0.7,7.9,2.2s3.3,4,3.7,7.7H195.6z"/>
	<path class="st0" d="M204.7,43.9v-4.8h3.6v-7.2h6.7v7.2h4.2v4.8H215v13.6c0,1.1,0.1,1.7,0.4,2s1.1,0.4,2.5,0.4c0.2,0,0.4,0,0.7,0
		c0.2,0,0.5,0,0.7,0v5L216,65c-3.2,0.1-5.4-0.4-6.5-1.7c-0.8-0.8-1.1-2-1.1-3.6V43.9H204.7z"/>
	<path class="st0" d="M230.5,35.8h-6.8v-6.2h6.8V35.8z M223.6,38.9h6.8v25.8h-6.8V38.9z"/>
	<path class="st0" d="M252.4,38.9h7.2l-9.3,25.8h-7.1L234,38.9h7.6l5.4,19L252.4,38.9z"/>
	<path class="st0" d="M279.3,39.4c1.8,0.8,3.3,2.1,4.5,3.8c1.1,1.5,1.7,3.3,2.1,5.3c0.2,1.2,0.3,2.9,0.2,5.1h-18.8
		c0.1,2.6,1,4.4,2.7,5.4c1,0.6,2.3,1,3.7,1c1.5,0,2.8-0.4,3.7-1.2c0.5-0.4,1-1,1.4-1.8h6.9c-0.2,1.5-1,3.1-2.5,4.7
		c-2.3,2.5-5.5,3.8-9.7,3.8c-3.4,0-6.5-1.1-9.1-3.2s-3.9-5.6-3.9-10.3c0-4.5,1.2-7.9,3.6-10.3c2.4-2.4,5.4-3.6,9.2-3.6
		C275.5,38.2,277.5,38.6,279.3,39.4z M269.2,45.2c-1,1-1.6,2.3-1.8,4H279c-0.1-1.8-0.7-3.1-1.8-4.1c-1.1-0.9-2.4-1.4-4-1.4
		C271.5,43.7,270.2,44.2,269.2,45.2z"/>
	<path class="st0" d="M290.5,29.9h15c4.1,0,7,1.2,8.7,3.6c1,1.4,1.5,3.1,1.5,5c0,2.2-0.6,4-1.9,5.4c-0.6,0.7-1.6,1.4-2.8,2
		c1.8,0.7,3.1,1.4,4,2.3c1.6,1.5,2.3,3.6,2.3,6.3c0,2.2-0.7,4.3-2.1,6.1c-2.1,2.7-5.5,4.1-10.1,4.1h-14.8V29.9H290.5z M303.8,44.6
		c2,0,3.6-0.3,4.7-0.8c1.8-0.9,2.6-2.4,2.6-4.7s-0.9-3.8-2.8-4.6c-1.1-0.4-2.6-0.7-4.7-0.7h-8.5v10.8H303.8z M305.4,60.6
		c2.9,0,5-0.8,6.2-2.5c0.8-1.1,1.2-2.3,1.2-3.8c0-2.5-1.1-4.2-3.4-5.2c-1.2-0.5-2.8-0.7-4.8-0.7h-9.4v12.2H305.4z"/>
	<path class="st0" d="M322.5,39.3h4v4.4c0.3-0.9,1.1-1.9,2.4-3.1c1.3-1.2,2.8-1.8,4.5-1.8c0.1,0,0.2,0,0.4,0c0.2,0,0.5,0,1,0.1v4.5
		c-0.3,0-0.5-0.1-0.7-0.1s-0.4,0-0.7,0c-2.1,0-3.8,0.7-4.9,2.1c-1.2,1.4-1.7,3-1.7,4.8v14.6h-4.3L322.5,39.3L322.5,39.3z"/>
	<path class="st0" d="M356.6,41.8c2.2,2.2,3.4,5.4,3.4,9.6c0,4.1-1,7.5-3,10.1c-2,2.7-5,4-9.2,4c-3.5,0-6.2-1.2-8.2-3.5
		c-2-2.4-3.1-5.5-3.1-9.5c0-4.3,1.1-7.6,3.2-10.2c2.1-2.5,5-3.8,8.6-3.8C351.6,38.6,354.3,39.7,356.6,41.8z M353.9,58.7
		c1-2.1,1.6-4.5,1.6-7.1c0-2.4-0.4-4.3-1.1-5.8c-1.2-2.3-3.2-3.5-6.1-3.5c-2.6,0-4.4,1-5.6,3s-1.8,4.4-1.8,7.2
		c0,2.7,0.6,4.9,1.8,6.7c1.2,1.8,3,2.7,5.6,2.7C351,61.9,352.9,60.8,353.9,58.7z"/>
	<path class="st0" d="M364.7,29.9h4.1v20.2l10.9-10.8h5.4l-9.7,9.4l10.3,15.9h-5.4l-8-12.9l-3.5,3.4v9.5h-4.1L364.7,29.9L364.7,29.9
		z"/>
	<path class="st0" d="M403.4,40c1.7,0.8,3,1.9,3.8,3.3c0.8,1.3,1.4,2.8,1.7,4.5c0.3,1.2,0.4,3,0.4,5.6h-18.4
		c0.1,2.6,0.7,4.6,1.8,6.2c1.1,1.6,2.9,2.3,5.2,2.3c2.2,0,4-0.7,5.3-2.2c0.7-0.9,1.3-1.8,1.6-3h4.2c-0.1,0.9-0.5,2-1.1,3.1
		s-1.3,2.1-2.1,2.8c-1.3,1.3-2.9,2.1-4.8,2.6c-1,0.3-2.2,0.4-3.5,0.4c-3.1,0-5.8-1.1-8-3.4c-2.2-2.3-3.3-5.5-3.3-9.6
		s1.1-7.4,3.3-9.9c2.2-2.5,5.1-3.8,8.6-3.8C400,38.7,401.7,39.2,403.4,40z M405,50c-0.2-1.8-0.6-3.3-1.2-4.4
		c-1.2-2.1-3.1-3.1-5.8-3.1c-1.9,0-3.6,0.7-4.9,2.1c-1.3,1.4-2,3.2-2.1,5.4H405z"/>
	<path class="st0" d="M414.4,39.3h4v4.4c0.3-0.9,1.1-1.9,2.4-3.1c1.3-1.2,2.8-1.8,4.5-1.8c0.1,0,0.2,0,0.4,0c0.2,0,0.5,0,1,0.1v4.5
		c-0.3,0-0.5-0.1-0.7-0.1s-0.4,0-0.7,0c-2.1,0-3.8,0.7-4.9,2.1c-1.2,1.4-1.7,3-1.7,4.8v14.6h-4.3L414.4,39.3L414.4,39.3z"/>
	<path class="st0" d="M433,56.7c0.1,1.4,0.5,2.5,1.1,3.3c1.1,1.4,3,2.1,5.7,2.1c1.6,0,3-0.3,4.3-1c1.2-0.7,1.8-1.7,1.8-3.2
		c0-1.1-0.5-1.9-1.5-2.5c-0.6-0.3-1.9-0.7-3.7-1.2l-3.4-0.9c-2.2-0.5-3.8-1.1-4.9-1.8c-1.9-1.2-2.8-2.7-2.8-4.8
		c0-2.4,0.9-4.3,2.6-5.8s4.1-2.2,7.1-2.2c3.9,0,6.7,1.1,8.4,3.4c1.1,1.4,1.6,3,1.6,4.6h-4c-0.1-1-0.4-1.8-1-2.6
		c-1-1.1-2.7-1.7-5.2-1.7c-1.6,0-2.9,0.3-3.7,0.9c-0.8,0.6-1.3,1.4-1.3,2.4c0,1.1,0.6,2,1.7,2.6c0.6,0.4,1.6,0.7,2.8,1l2.9,0.7
		c3.1,0.7,5.2,1.5,6.3,2.2c1.7,1.1,2.5,2.8,2.5,5.1s-0.9,4.2-2.6,5.8s-4.4,2.5-7.9,2.5c-3.8,0-6.5-0.9-8.1-2.6s-2.4-3.8-2.6-6.4h3.9
		V56.7z"/>
</g>
<g>
	
		<linearGradient id="SVGID_1_" gradientUnits="userSpaceOnUse" x1="3706.7817" y1="20.2" x2="3735.1816" y2="20.2" gradientTransform="matrix(-1 0 0 -1 3736.2446 70)">
		<stop  offset="0" style="stop-color:#D81222"/>
		<stop  offset="1" style="stop-color:#960B1A"/>
	</linearGradient>
	<polygon class="st1" points="29.5,65.4 1.1,65.4 1.1,34.2 	"/>
	<circle class="st2" cx="25.5" cy="41.8" r="8.5"/>
	<polygon class="st2" points="29.5,1.3 1.1,34.2 1.1,65.4 	"/>
</g>
</svg>
